PathFileType	4	(X/Y/Z)	C:/Users/opensim2020/Desktop/walking_exp_matlab/subject03_walking05_straight_02.trc																																																																																																																																					
DataRate	CameraRate	NumFrames	NumMarkers	Units	OrigDataRate	OrigDataStartFrame	OrigNumFrames																																																																																																																																	
100	100	5	45	mm	100	1477	252																																																																																																																																	
Frame#	Time	LFHD			RFHD			LBHD			RBHD			C7			T10			CLAV			STRN			RBAK			LSHO			LUPA			LELB			LFRM			LWRA			LWRB			LFIN			RSHO			RUPA			RELB			RFRM			RWRA			RWRB			RFIN			LASI			RASI			LPSI			RPSI			LTHI			LKNE			LTIB			LANK			LHEE			LTOE			RTHI			RKNE			RTIB			RANK			RHEE			RTOE			*39			*40			*41			*42			*43			*44		
		X1	Y1	Z1	X2	Y2	Z2	X3	Y3	Z3	X4	Y4	Z4	X5	Y5	Z5	X6	Y6	Z6	X7	Y7	Z7	X8	Y8	Z8	X9	Y9	Z9	X10	Y10	Z10	X11	Y11	Z11	X12	Y12	Z12	X13	Y13	Z13	X14	Y14	Z14	X15	Y15	Z15	X16	Y16	Z16	X17	Y17	Z17	X18	Y18	Z18	X19	Y19	Z19	X20	Y20	Z20	X21	Y21	Z21	X22	Y22	Z22	X23	Y23	Z23	X24	Y24	Z24	X25	Y25	Z25	X26	Y26	Z26	X27	Y27	Z27	X28	Y28	Z28	X29	Y29	Z29	X30	Y30	Z30	X31	Y31	Z31	X32	Y32	Z32	X33	Y33	Z33	X34	Y34	Z34	X35	Y35	Z35	X36	Y36	Z36	X37	Y37	Z37	X38	Y38	Z38	X39	Y39	Z39	X40	Y40	Z40	X41	Y41	Z41	X42	Y42	Z42	X43	Y43	Z43	X44	Y44	Z44	X45	Y45	Z45
																																																																																																																																								
1	0	-1242.59167	1616.38306	-1507.79749	-1259.52454	1621.29468	-1375.6759	-1372.12036	1578.0896	-1519.72034	-1384.06494	1582.68896	-1389.31519	-1417.92664	1420.47375	-1454.48071	-1457.68835	1107.63416	-1441.40503	-1296.49316	1342.38904	-1452.77026	-1255.12415	1177.875	-1457.05554	-1471.70081	1249.40833	-1353.01953	-1345.06433	1378.87073	-1606.38062	-1336.55933	1189.38599	-1685.41931	-1308.17004	1072.37793	-1705.34705	-1231.76685	969.36542	-1705.42957	-1157.90955	878.73083	-1673.61841	-1184.09851	866.66156	-1720.42664	-1125.2655	808.91693	-1713.69885	-1340.57068	1371.63208	-1293.34448	-1350.39209	1148.99805	-1221.3667	-1343.26526	1035.92017	-1211.12891	-1337.57239	898.99237	-1210.04919	-1318.14514	801.27972	-1247.66821	-1346.46252	798.77783	-1201.26453	-1336.55872	724.24634	-1215.66882	-1299.48132	940.88495	-1566.14087	-1279.22363	944.98981	-1330.05652	-1455.92358	966.36084	-1501.74011	-1441.33337	973.46234	-1354.25806	-1375.87354	640.72748	-1623.7926	-1382.60388	459.62006	-1611.25415	-1533.67542	329.33286	-1596.29199	-1674.78577	179.15729	-1543.29688	-1718.88647	191.32002	-1500.4707	-1611.72705	43.50035	-1507.89258	-1305.16406	643.92548	-1302.55322	-1266.65662	470.97055	-1353.14807	-1286.80664	281.42242	-1363.06641	-1281.14404	70.30515	-1428.30005	-1320.63135	39.67307	-1484.01453	-1138.43103	38.69211	-1436.80518	NaN	NaN	NaN	NaN	NaN	NaN	NaN	NaN	NaN	NaN	NaN	NaN	NaN	NaN	NaN	NaN	NaN	NaN
2	0.01	-1233.36475	1617.05249	-1507.85156	-1250.36157	1621.9668	-1375.76208	-1362.87	1578.51807	-1519.72131	-1374.73999	1583.01013	-1389.26282	-1408.63293	1420.82593	-1454.30701	-1448.05493	1107.95691	-1441.2356	-1286.88562	1342.90906	-1452.95703	-1245.63184	1178.31567	-1457.28918	-1461.52344	1249.67041	-1352.34387	-1335.80469	1379.37122	-1606.28564	-1327.96521	1189.37488	-1684.59326	-1301.4436	1071.78625	-1704.12561	-1227.17688	966.60858	-1703.922	-1156.09778	873.47046	-1672.15588	-1182.48975	862.59436	-1719.12756	-1125.87451	802.32446	-1712.16528	-1330.16272	1372.07678	-1293.36084	-1339.44165	1149.76819	-1220.7312	-1331.82605	1036.75732	-1210.328	-1324.32666	899.93439	-1209.68567	-1304.11926	801.74744	-1248.3042	-1331.99146	799.54974	-1201.35461	-1321.05615	725.04089	-1216.22778	-1289.97473	941.13513	-1566.38184	-1269.78003	944.75671	-1330.12988	-1446.65234	966.17834	-1501.94519	-1431.82739	973.78894	-1354.31421	-1360.42139	639.60492	-1624.67932	-1361.00195	458.39233	-1612.61023	-1513.2085	330.50336	-1598.92566	-1658.49854	184.7856	-1546.57629	-1702.94897	196.95258	-1503.58264	-1597.15039	47.66116	-1514.16504	-1298.52637	643.9682	-1302.26904	-1261.60107	470.33365	-1353.14063	-1283.8717	281.47409	-1363.17297	-1280.97571	70.34437	-1428.63342	-1320.5542	39.76647	-1484.21326	-1138.22485	38.52497	-1436.93359	-1318.17334	1683.37866	-1467.96899	NaN	NaN	NaN	NaN	NaN	NaN	NaN	NaN	NaN	NaN	NaN	NaN	NaN	NaN	NaN
3	0.02	-1224.22351	1617.6947	-1507.8916	-1241.16736	1622.56726	-1375.79211	-1353.71484	1578.90259	-1519.8175	-1365.45764	1583.2594	-1389.27527	-1399.29211	1421.16443	-1454.07349	-1438.50305	1108.14502	-1441.13586	-1277.46094	1343.34302	-1453.11841	-1236.30835	1178.79724	-1457.74402	-1451.58728	1249.64807	-1351.66089	-1326.61499	1379.59155	-1606.42053	-1319.5376	1188.97156	-1683.95154	-1294.53088	1070.67871	-1702.89648	-1222.65466	963.54639	-1702.53491	-1154.32971	868.05621	-1670.74341	-1181.05859	858.12885	-1717.76904	-1126.79626	795.50916	-1710.54712	-1320.125	1372.43347	-1293.4895	-1328.39746	1150.09839	-1220.05225	-1320.26953	1037.16223	-1209.38574	-1311.15491	900.63031	-1209.07275	-1288.74316	803.4632	-1247.48608	-1317.28516	799.93457	-1201.40466	-1305.63025	725.78387	-1216.42126	-1280.61548	941.13251	-1566.74768	-1260.36963	944.04462	-1330.32532	-1437.50977	965.57904	-1502.16492	-1422.5791	973.73285	-1354.24792	-1345.00439	639.00708	-1625.29431	-1339.47266	457.81226	-1613.875	-1492.57813	331.98218	-1600.79419	-1640.87744	189.4684	-1549.71899	-1685.85791	200.98544	-1505.9884	-1580.35803	51.09437	-1520.01086	-1292.49329	644.19159	-1301.52075	-1256.84924	469.90054	-1352.77771	-1280.99951	281.56369	-1363.26782	-1280.78467	70.34129	-1429.01111	-1320.46985	39.84539	-1484.33337	-1138.04419	38.39778	-1437.02673	NaN	NaN	NaN	NaN	NaN	NaN	NaN	NaN	NaN	NaN	NaN	NaN	NaN	NaN	NaN	NaN	NaN	NaN
4	0.03	-1215.07092	1618.25708	-1507.95483	-1232.04675	1623.05884	-1375.83984	-1344.61719	1579.25879	-1519.97351	-1356.1991	1583.50366	-1389.20862	-1389.90527	1421.53735	-1453.79224	-1429.06091	1108.27783	-1441.07764	-1268.1438	1343.71497	-1453.25171	-1227.03699	1178.76416	-1457.96985	-1441.89209	1249.43896	-1350.95837	-1317.43066	1379.57544	-1606.71802	-1311.25195	1188.21411	-1683.297	-1287.4314	1069.34863	-1701.76892	-1218.18835	960.16412	-1701.20691	-1152.75037	862.49579	-1669.56128	-1179.82556	853.5755	-1716.66016	-1128.13733	788.58386	-1708.93042	-1309.83081	1372.28784	-1293.35071	-1317.23584	1150.05688	-1219.38806	-1308.31787	1037.15015	-1208.26904	-1297.39587	900.57819	-1208.76978	-1274.00317	804.10773	-1247.62708	-1302.48071	800.00946	-1201.41309	-1289.3833	725.9964	-1216.68445	-1271.29578	941.06464	-1567.24048	-1251.01306	943.32452	-1330.61768	-1428.45947	964.68652	-1502.34888	-1413.59131	973.52429	-1354.22668	-1329.48328	639.22119	-1626.03516	-1318.24426	458.0932	-1614.95325	-1471.97571	333.60477	-1602.41016	-1622.17212	193.03645	-1552.7467	-1667.69861	203.67012	-1508.74512	-1561.13708	55.23663	-1527.17969	-1285.93567	644.12683	-1300.43579	-1252.15649	469.50061	-1352.28625	-1278.10828	281.56772	-1363.38464	-1280.59155	70.39381	-1429.3219	-1320.42517	39.93534	-1484.46497	-1137.89014	38.29432	-1437.04651	NaN	NaN	NaN	NaN	NaN	NaN	NaN	NaN	NaN	NaN	NaN	NaN	NaN	NaN	NaN	NaN	NaN	NaN
5	0.04	-1205.99133	1618.77014	-1508.03601	-1222.65649	1623.46777	-1375.91064	-1335.3136	1579.46301	-1519.68604	-1346.84875	1583.75085	-1389.13782	-1380.51563	1421.96887	-1453.58716	-1419.72229	1108.36731	-1441.00989	-1258.93164	1344.08362	-1453.46716	-1217.9314	1178.88037	-1458.30774	-1432.60376	1249.4176	-1350.4303	-1308.37109	1379.48608	-1607.16882	-1303.20105	1187.33252	-1682.75671	-1280.0802	1067.88672	-1700.59436	-1213.80859	956.56842	-1699.8468	-1151.49475	856.75281	-1668.31982	-1178.86499	848.82281	-1715.47803	-1129.81787	781.68427	-1707.32202	-1299.91443	1372.09351	-1293.32227	-1305.90137	1149.78052	-1218.86499	-1296.28333	1036.9574	-1207.32629	-1283.70166	900.46436	-1208.56519	-1258.63879	804.52496	-1247.37927	-1287.40784	799.89117	-1201.41138	-1272.91785	726.39471	-1217.10376	-1261.82568	940.8916	-1567.63965	-1241.76709	942.75079	-1330.80847	-1419.48499	963.72552	-1502.72217	-1404.91528	973.26337	-1354.36694	-1313.68945	639.93298	-1626.60132	-1297.49805	459.23785	-1615.75439	-1451.44836	335.3407	-1604.29089	-1602.29358	195.28781	-1555.75525	-1648.61755	204.83591	-1511.53308	-1540.15857	57.98721	-1533.19922	-1280.02991	644.50311	-1299.73401	-1247.6394	469.32391	-1351.78137	-1275.18958	281.65985	-1363.57361	-1280.48975	70.57391	-1429.50659	-1320.3457	40.05639	-1484.56592	-1137.80078	38.22134	-1437.03369	-1291.97827	1681.36633	-1466.08362	NaN	NaN	NaN	NaN	NaN	NaN	NaN	NaN	NaN	NaN	NaN	NaN	NaN	NaN	NaN
